<svg xmlns="http://www.w3.org/2000/svg" viewBox="0 0 1200 800" font-family="-apple-system, BlinkMacSystemFont, 'Segoe UI', Roboto, sans-serif">
  <!-- Background -->
  <rect width="1200" height="800" fill="#F8FAFC"/>

  <!-- Header bar -->
  <rect x="0" y="0" width="1200" height="70" fill="#1E293B"/>
  <text x="30" y="35" fill="#FFFFFF" font-size="20" font-weight="600">Used Vehicle Opportunity Portfolio</text>
  <text x="30" y="58" fill="#94A3B8" font-size="13">Page 3 · Opportunity Scoring &amp; Candidate Ranking</text>
  <text x="1170" y="40" text-anchor="end" fill="#FFFFFF" font-size="13" font-weight="500">CONSUMER BANK · DATA UNIT</text>
  <text x="1170" y="58" text-anchor="end" fill="#94A3B8" font-size="11">Scope: VW Golf · Germany</text>

  <!-- Filter bar with threshold slider (the hero interaction) -->
  <rect x="0" y="70" width="1200" height="45" fill="#FFFFFF" stroke="#E2E8F0" stroke-width="1"/>
  <text x="30" y="97" fill="#64748B" font-size="11" font-weight="600" letter-spacing="0.5">CLASSIFIER THRESHOLD:</text>
  <!-- Slider -->
  <line x1="210" y1="93" x2="430" y2="93" stroke="#CBD5E1" stroke-width="4" stroke-linecap="round"/>
  <line x1="210" y1="93" x2="350" y2="93" stroke="#3B82F6" stroke-width="4" stroke-linecap="round"/>
  <circle cx="350" cy="93" r="8" fill="#FFFFFF" stroke="#3B82F6" stroke-width="2"/>
  <text x="350" y="78" text-anchor="middle" fill="#1E293B" font-size="11" font-weight="700">0.45</text>
  <text x="210" y="113" fill="#64748B" font-size="9">0.20</text>
  <text x="430" y="113" text-anchor="end" fill="#64748B" font-size="9">0.80</text>

  <rect x="475" y="82" width="180" height="22" rx="11" fill="#EFF6FF" stroke="#93C5FD" stroke-width="1"/>
  <text x="565" y="97" text-anchor="middle" fill="#1D4ED8" font-size="11">Selected model: Random Forest</text>

  <rect x="665" y="82" width="130" height="22" rx="11" fill="#EFF6FF" stroke="#93C5FD" stroke-width="1"/>
  <text x="730" y="97" text-anchor="middle" fill="#1D4ED8" font-size="11">Require discount: ≥5%</text>

  <!-- KPI tiles row -->
  <g>
    <rect x="30" y="135" width="275" height="90" rx="6" fill="#FFFFFF" stroke="#E2E8F0" stroke-width="1"/>
    <text x="50" y="162" fill="#64748B" font-size="11" font-weight="600" letter-spacing="0.5">TEST ROC-AUC</text>
    <text x="50" y="198" fill="#1E293B" font-size="30" font-weight="700">0.83</text>
    <text x="130" y="198" fill="#10B981" font-size="12">▲ Random Forest</text>

    <rect x="317" y="135" width="275" height="90" rx="6" fill="#FFFFFF" stroke="#E2E8F0" stroke-width="1"/>
    <text x="337" y="162" fill="#64748B" font-size="11" font-weight="600" letter-spacing="0.5">PRECISION @ THRESHOLD</text>
    <text x="337" y="198" fill="#1E293B" font-size="30" font-weight="700">0.58</text>
    <text x="420" y="198" fill="#64748B" font-size="12">recall 0.67 · F1 0.62</text>

    <rect x="604" y="135" width="275" height="90" rx="6" fill="#FFFFFF" stroke="#E2E8F0" stroke-width="1"/>
    <text x="624" y="162" fill="#64748B" font-size="11" font-weight="600" letter-spacing="0.5">CANDIDATES AT ≥ 0.45</text>
    <text x="624" y="198" fill="#1E293B" font-size="30" font-weight="700">94</text>
    <text x="690" y="198" fill="#64748B" font-size="12">7.6% of total scope</text>

    <rect x="891" y="135" width="275" height="90" rx="6" fill="#FFFFFF" stroke="#E2E8F0" stroke-width="1"/>
    <text x="911" y="162" fill="#64748B" font-size="11" font-weight="600" letter-spacing="0.5">REVIEW QUEUE (TOP 25)</text>
    <text x="911" y="198" fill="#10B981" font-size="30" font-weight="700">25</text>
    <text x="965" y="198" fill="#64748B" font-size="12">capacity-based shortlist</text>
  </g>

  <!-- Main chart: Probability distribution with threshold -->
  <rect x="30" y="248" width="735" height="290" rx="6" fill="#FFFFFF" stroke="#E2E8F0" stroke-width="1"/>
  <text x="50" y="275" fill="#1E293B" font-size="14" font-weight="600">Top-Price Probability Distribution</text>
  <text x="50" y="292" fill="#64748B" font-size="11">Move the threshold to trade precision vs recall · highlighted area = review queue</text>

  <!-- Histogram with threshold line -->
  <g>
    <!-- Background bars (all listings) -->
    <rect x="70" y="330" width="50" height="180" fill="#DBEAFE"/>
    <rect x="122" y="360" width="50" height="150" fill="#DBEAFE"/>
    <rect x="174" y="390" width="50" height="120" fill="#DBEAFE"/>
    <rect x="226" y="420" width="50" height="90" fill="#DBEAFE"/>
    <rect x="278" y="445" width="50" height="65" fill="#DBEAFE"/>
    <rect x="330" y="465" width="50" height="45" fill="#DBEAFE"/>
    <!-- Above threshold: highlighted -->
    <rect x="382" y="460" width="50" height="50" fill="#3B82F6"/>
    <rect x="434" y="455" width="50" height="55" fill="#3B82F6"/>
    <rect x="486" y="445" width="50" height="65" fill="#3B82F6"/>
    <rect x="538" y="455" width="50" height="55" fill="#3B82F6"/>
    <rect x="590" y="465" width="50" height="45" fill="#3B82F6"/>
    <rect x="642" y="475" width="50" height="35" fill="#3B82F6"/>
    <rect x="694" y="485" width="46" height="25" fill="#3B82F6"/>

    <!-- Threshold line -->
    <line x1="382" y1="320" x2="382" y2="510" stroke="#EF4444" stroke-width="2"/>
    <rect x="345" y="310" width="75" height="18" rx="3" fill="#EF4444"/>
    <text x="382" y="323" text-anchor="middle" fill="#FFFFFF" font-size="11" font-weight="600">0.45 threshold</text>

    <!-- X axis -->
    <line x1="65" y1="510" x2="745" y2="510" stroke="#94A3B8" stroke-width="1"/>
    <text x="70" y="528" fill="#64748B" font-size="10">0.0</text>
    <text x="250" y="528" fill="#64748B" font-size="10">0.3</text>
    <text x="450" y="528" fill="#64748B" font-size="10">0.6</text>
    <text x="730" y="528" fill="#64748B" font-size="10">1.0</text>
    <text x="400" y="545" text-anchor="middle" fill="#64748B" font-size="11">Predicted top-price probability</text>

    <!-- Caption -->
    <rect x="500" y="338" width="230" height="60" rx="4" fill="#FEF3C7" stroke="#F59E0B" stroke-width="1"/>
    <text x="515" y="357" fill="#92400E" font-size="11" font-weight="600">Selected review queue</text>
    <text x="515" y="373" fill="#92400E" font-size="10">94 listings with p ≥ 0.45</text>
    <text x="515" y="387" fill="#92400E" font-size="10">Top 25 ranked on next panel →</text>
  </g>

  <!-- Secondary chart: Feature importance -->
  <rect x="778" y="248" width="388" height="290" rx="6" fill="#FFFFFF" stroke="#E2E8F0" stroke-width="1"/>
  <text x="798" y="275" fill="#1E293B" font-size="14" font-weight="600">What Drives the Score</text>
  <text x="798" y="292" fill="#64748B" font-size="11">Random Forest feature importance · explains the signal</text>

  <!-- Horizontal bars -->
  <g>
    <text x="798" y="325" fill="#1E293B" font-size="11">Price (EUR)</text>
    <rect x="900" y="315" width="230" height="14" fill="#2563EB"/>
    <text x="1140" y="325" text-anchor="end" fill="#64748B" font-size="10">0.38</text>

    <text x="798" y="350" fill="#1E293B" font-size="11">Mileage (km)</text>
    <rect x="900" y="340" width="210" height="14" fill="#3B82F6"/>
    <text x="1140" y="350" text-anchor="end" fill="#64748B" font-size="10">0.35</text>

    <text x="798" y="375" fill="#1E293B" font-size="11">Age (years)</text>
    <rect x="900" y="365" width="100" height="14" fill="#60A5FA"/>
    <text x="1140" y="375" text-anchor="end" fill="#64748B" font-size="10">0.16</text>

    <text x="798" y="400" fill="#1E293B" font-size="11">Power (hp)</text>
    <rect x="900" y="390" width="55" height="14" fill="#93C5FD"/>
    <text x="1140" y="400" text-anchor="end" fill="#64748B" font-size="10">0.08</text>

    <text x="798" y="425" fill="#1E293B" font-size="11">Fuel type</text>
    <rect x="900" y="415" width="25" height="14" fill="#BFDBFE"/>
    <text x="1140" y="425" text-anchor="end" fill="#64748B" font-size="10">0.03</text>

    <!-- Interpretation note -->
    <rect x="798" y="455" width="346" height="70" rx="4" fill="#F1F5F9"/>
    <text x="810" y="473" fill="#475569" font-size="10" font-weight="600">INTERPRETATION</text>
    <text x="810" y="490" fill="#334155" font-size="10">Price and mileage dominate — makes sense: the label is a</text>
    <text x="810" y="503" fill="#334155" font-size="10">price-vs-expectation judgment and mileage is the strongest</text>
    <text x="810" y="516" fill="#334155" font-size="10">price explanator after we already control for model/country.</text>
  </g>

  <!-- Bottom: Ranked candidates table -->
  <rect x="30" y="558" width="1136" height="180" rx="6" fill="#FFFFFF" stroke="#E2E8F0" stroke-width="1"/>
  <text x="50" y="585" fill="#1E293B" font-size="14" font-weight="600">Review Queue — Top 25 Candidates</text>
  <text x="50" y="602" fill="#64748B" font-size="11">Ranked by probability · filtered to listings also below expected price</text>

  <line x1="50" y1="615" x2="1146" y2="615" stroke="#E2E8F0" stroke-width="1"/>
  <text x="60" y="632" fill="#64748B" font-size="10" font-weight="600" letter-spacing="0.5">RANK</text>
  <text x="110" y="632" fill="#64748B" font-size="10" font-weight="600" letter-spacing="0.5">LISTING</text>
  <text x="220" y="632" fill="#64748B" font-size="10" font-weight="600" letter-spacing="0.5">VARIANT · YEAR</text>
  <text x="400" y="632" fill="#64748B" font-size="10" font-weight="600" letter-spacing="0.5">PRICE</text>
  <text x="510" y="632" fill="#64748B" font-size="10" font-weight="600" letter-spacing="0.5">EXPECTED</text>
  <text x="630" y="632" fill="#64748B" font-size="10" font-weight="600" letter-spacing="0.5">GAP</text>
  <text x="740" y="632" fill="#64748B" font-size="10" font-weight="600" letter-spacing="0.5">TOP-PRICE p</text>
  <text x="880" y="632" fill="#64748B" font-size="10" font-weight="600" letter-spacing="0.5">LABEL</text>
  <text x="1020" y="632" fill="#64748B" font-size="10" font-weight="600" letter-spacing="0.5">FLAG</text>
  <line x1="50" y1="640" x2="1146" y2="640" stroke="#E2E8F0" stroke-width="1"/>

  <g font-size="11" fill="#1E293B">
    <text x="60" y="658">1</text><text x="110" y="658">#0412</text><text x="220" y="658">Golf 8 · 2020</text><text x="400" y="658">€19,800</text><text x="510" y="658">€23,400</text><text x="630" y="658" fill="#10B981" font-weight="600">−€3,600</text><text x="740" y="658" font-weight="600">0.79</text><text x="880" y="658">good-price</text>
    <rect x="1015" y="647" width="85" height="16" rx="3" fill="#10B981"/><text x="1057" y="659" text-anchor="middle" fill="#FFFFFF" font-size="10" font-weight="600">review now</text>

    <text x="60" y="678">2</text><text x="110" y="678">#1042</text><text x="220" y="678">Golf Variant · 2019</text><text x="400" y="678">€14,900</text><text x="510" y="678">€18,200</text><text x="630" y="678" fill="#10B981" font-weight="600">−€3,300</text><text x="740" y="678" font-weight="600">0.74</text><text x="880" y="678">good-price</text>
    <rect x="1015" y="667" width="85" height="16" rx="3" fill="#10B981"/><text x="1057" y="679" text-anchor="middle" fill="#FFFFFF" font-size="10" font-weight="600">review now</text>

    <text x="60" y="698">3</text><text x="110" y="698">#0156</text><text x="220" y="698">Golf GTI · 2018</text><text x="400" y="698">€21,200</text><text x="510" y="698">€24,100</text><text x="630" y="698" fill="#10B981" font-weight="600">−€2,900</text><text x="740" y="698" font-weight="600">0.71</text><text x="880" y="698">good-price</text>
    <rect x="1015" y="687" width="85" height="16" rx="3" fill="#3B82F6"/><text x="1057" y="699" text-anchor="middle" fill="#FFFFFF" font-size="10" font-weight="600">monitor</text>

    <text x="60" y="718">… 22 more</text>
    <text x="220" y="718" fill="#94A3B8" font-style="italic">(populated post-modeling in Session 7)</text>
  </g>

  <!-- Footer -->
  <text x="30" y="775" fill="#94A3B8" font-size="10">Model: Random Forest · target: top_price (from AutoScout label) · source: fact_top_price_predictions</text>
  <text x="1170" y="775" text-anchor="end" fill="#94A3B8" font-size="10">WIREFRAME · Session 1 mock · not production data</text>
</svg>
